<?xml version="1.0" ?>
<svg viewBox="0 0 32 32" xmlns="http://www.w3.org/2000/svg">
	<title/>
	<g data-name="Layer 51" id="Layer_51" fill="#DC0B13C0">
		<path d="M19.21,5.2H9.53A1.63,1.63,0,0,0,7.9,6.83V16.91A1.28,1.28,0,0,0,7,18.12v4a1.28,1.28,0,0,0,.9,1.21v1.87A1.63,1.63,0,0,0,9.53,26.8H23.37A1.63,1.63,0,0,0,25,25.17V11ZM8.28,22.47a.38.38,0,0,1-.38-.38v-4a.38.38,0,0,1,.38-.38H21a.39.39,0,0,1,.39.38v4a.39.39,0,0,1-.39.38Zm15.82,2.7a.73.73,0,0,1-.73.73H9.53a.73.73,0,0,1-.73-.73v-1.8H21a1.28,1.28,0,0,0,1.29-1.28v-4A1.28,1.28,0,0,0,21,16.84H8.8v-10a.73.73,0,0,1,.73-.73h9.3l.19.19V10a1.18,1.18,0,0,0,1.18,1.18h3.71l.19.19Z"/>
		<path d="M12.62,18.72a1.78,1.78,0,0,0-.72-.14H10.54v3.13h.73v-.86h.63a1.78,1.78,0,0,0,.72-.14,1.07,1.07,0,0,0,.47-.39,1.14,1.14,0,0,0,0-1.2A1.16,1.16,0,0,0,12.62,18.72Zm-.27,1.4a.75.75,0,0,1-.49.14h-.59V19.17h.59a.7.7,0,0,1,.49.15.46.46,0,0,1,.17.4A.47.47,0,0,1,12.35,20.12Z"/>
		<path d="M16.09,18.78a2,2,0,0,0-.9-.2H13.77v3.13h1.42a2,2,0,0,0,.9-.19A1.48,1.48,0,0,0,16.7,21a1.64,1.64,0,0,0,0-1.64A1.48,1.48,0,0,0,16.09,18.78Zm-.19,2.08a1,1,0,0,1-.74.26h-.67V19.18h.67a1,1,0,0,1,.74.26.91.91,0,0,1,.28.71A.92.92,0,0,1,15.9,20.86Z"/>
		<polygon points="17.46 21.71 18.18 21.71 18.18 20.57 19.63 20.57 19.63 19.99 18.18 19.99 18.18 19.17 19.82 19.17 19.82 18.59 17.46 18.59 17.46 21.71"/>
	</g>
</svg>