<?xml version="1.0" encoding="utf-8"?>
<svg x="0px" y="0px" width="48px" height="48px" viewBox="0 0 48 48" xmlns="http://www.w3.org/2000/svg" xmlns:xlink="http://www.w3.org/1999/xlink">
  <!--Generated by AMDN-->
  <g id="Layer_1">
    <g id="Group">
      <path id="Path" style="fill:#8cc63f;fill-opacity:1;fill-rule:evenodd;opacity:1;stroke:#8cc63f;stroke-linecap:round;stroke-linejoin:round;stroke-miterlimit:10;stroke-opacity:1;stroke-width:0.945698;" d="M14.6173,23.0216 C14.9723,22.5985,15.603,22.5433,16.0261,22.8983 C16.0261,22.8983,23.9786,29.5713,23.9786,29.5713 C24.4017,29.9263,24.4569,30.5571,24.1019,30.9801 C24.1019,30.9801,22.8163,32.5122,22.8163,32.5122 C22.4613,32.9353,21.8306,32.9905,21.4075,32.6355 C21.4075,32.6355,13.455,25.9625,13.455,25.9625 C13.0319,25.6075,12.9767,24.9768,13.3317,24.5537 C13.3317,24.5537,14.6173,23.0216,14.6173,23.0216 z"/>
      <path id="Path_Copy" style="fill:#8cc63f;fill-opacity:1;fill-rule:evenodd;opacity:1;stroke:#8cc63f;stroke-linecap:round;stroke-linejoin:round;stroke-miterlimit:10;stroke-opacity:1;stroke-width:0.972882;" d="M34.9039,16.5572 C35.327,16.9122,35.3821,17.543,35.0271,17.966 C35.0271,17.966,24.4983,30.5139,24.4983,30.5139 C24.1433,30.9369,23.5125,30.9921,23.0895,30.6371 C23.0895,30.6371,21.5574,29.3515,21.5574,29.3515 C21.1343,28.9965,21.0791,28.3658,21.4341,27.9427 C21.4341,27.9427,31.963,15.3949,31.963,15.3949 C32.318,14.9718,32.9487,14.9166,33.3718,15.2716 C33.3718,15.2716,34.9039,16.5572,34.9039,16.5572 z"/>
    </g>
  </g>
</svg>
