<?xml version="1.0" ?>
<!DOCTYPE svg  PUBLIC '-//W3C//DTD SVG 1.1//EN'  'http://www.w3.org/Graphics/SVG/1.1/DTD/svg11.dtd'>
<svg height="100%" style="fill-rule:evenodd;clip-rule:evenodd;stroke-linejoin:round;stroke-miterlimit:2;" fill="#A0A0A0" version="1.1" viewBox="0 0 32 32" width="100%" xml:space="preserve" xmlns="http://www.w3.org/2000/svg" xmlns:serif="http://www.serif.com/" xmlns:xlink="http://www.w3.org/1999/xlink">
	<path d="M30,9c0,-0.796 -0.316,-1.559 -0.879,-2.121c-0.562,-0.563 -1.325,-0.879 -2.121,-0.879l-22,-0c-0.796,0 -1.559,0.316 -2.121,0.879c-0.563,0.562 -0.879,1.325 -0.879,2.121c-0,3.463 -0,10.537 -0,14c-0,0.796 0.316,1.559 0.879,2.121c0.562,0.563 1.325,0.879 2.121,0.879l22,-0c0.796,-0 1.559,-0.316 2.121,-0.879c0.563,-0.562 0.879,-1.325 0.879,-2.121l-0,-14Zm-2,0l-0,14c0,0.265 -0.105,0.52 -0.293,0.707c-0.187,0.188 -0.442,0.293 -0.707,0.293c-0,-0 -22,0 -22,0c-0.265,-0 -0.52,-0.105 -0.707,-0.293c-0.188,-0.187 -0.293,-0.442 -0.293,-0.707l-0,-14c-0,-0.265 0.105,-0.52 0.293,-0.707c0.187,-0.188 0.442,-0.293 0.707,-0.293c0,-0 22,-0 22,-0c0.265,0 0.52,0.105 0.707,0.293c0.188,0.187 0.293,0.442 0.293,0.707Z"/>
	<path d="M21.486,16.873c0.317,-0.177 0.514,-0.511 0.514,-0.875c0,-0.363 -0.197,-0.697 -0.514,-0.874l-9,-5.001c-0.31,-0.172 -0.688,-0.168 -0.993,0.012c-0.305,0.18 -0.493,0.508 -0.493,0.862l-0,10.003c-0,0.354 0.188,0.682 0.493,0.862c0.305,0.18 0.683,0.184 0.993,0.012l9,-5.001Zm-2.545,-0.875l-5.941,3.302c-0,0 -0,-6.603 -0,-6.603l5.941,3.301Z"/>
	<rect height="2" width="2" x="6" y="10"/>
	<rect height="2" width="2" x="24" y="10"/>
	<rect height="2" width="2" x="6" y="14.998"/>
	<rect height="2" width="2" x="24" y="14.998"/>
	<rect height="2" width="2" x="6" y="20"/>
	<rect height="2" width="2" x="24" y="20"/>
</svg>